<svg viewBox="0 0 512 512" xmlns="http://www.w3.org/2000/svg"><path d="M171.583 184.137h-11.816a5.439 5.439 0 0 0-5.432 5.432v17.16a1.585 1.585 0 0 1-1.584 1.582h-17.16a5.439 5.439 0 0 0-5.431 5.433v11.817a5.438 5.438 0 0 0 5.431 5.431h17.16a1.586 1.586 0 0 1 1.584 1.584v17.16a5.438 5.438 0 0 0 5.432 5.431h11.816a5.438 5.438 0 0 0 5.432-5.432v-17.159a1.586 1.586 0 0 1 1.583-1.584h17.16a5.438 5.438 0 0 0 5.432-5.431v-11.817a5.439 5.439 0 0 0-5.432-5.432h-17.16a1.585 1.585 0 0 1-1.583-1.584V189.57a5.439 5.439 0 0 0-5.432-5.432ZM367.25 150.337a6 6 0 0 0 6-6V129.91a6 6 0 1 0-12 0v14.427a6 6 0 0 0 6 6ZM388.704 153.18a5.997 5.997 0 0 0 7.989-2.86l6.383-13.511a6 6 0 0 0-10.85-5.127l-6.383 13.51a6 6 0 0 0 2.861 7.989ZM337.807 150.32a6 6 0 1 0 10.85-5.128l-6.384-13.51a6 6 0 1 0-10.85 5.127Z" fill="#4fa9d6" class="fill-000000"></path><path d="M201.561 272.691a64.041 64.041 0 0 1-88.657-89.319 6 6 0 1 0-9.882-6.807 76.041 76.041 0 0 0 105.274 106.058 6 6 0 1 0-6.735-9.932ZM165.675 143.62a75.65 75.65 0 0 0-42.515 12.99 6 6 0 1 0 6.718 9.943 64.043 64.043 0 0 1 89.495 87.993 6 6 0 1 0 10.056 6.549 76.044 76.044 0 0 0-63.754-117.475ZM371.561 336.452a39.618 39.618 0 1 0 39.618 39.618 39.663 39.663 0 0 0-39.618-39.618Zm0 54a14.382 14.382 0 1 1 14.382-14.382 14.383 14.383 0 0 1-14.382 14.383ZM122.057 336.452a39.618 39.618 0 1 0 39.618 39.618 39.663 39.663 0 0 0-39.618-39.618Zm0 54a14.382 14.382 0 1 1 14.382-14.382 14.382 14.382 0 0 1-14.382 14.383Z" fill="#4fa9d6" class="fill-000000"></path><path d="M473.896 265.066c-.11-.006-.22-.017-.333-.017h-.213a35.272 35.272 0 0 1-32.98-23.51l-10.095-28.663a40.799 40.799 0 0 0-35.605-27.083 28.519 28.519 0 0 0-57.038-.102h-18.42v-13.198l-.002-.048V125.69a29.411 29.411 0 0 0-29.378-29.378H38.078A29.411 29.411 0 0 0 8.7 125.69v233.83a21.89 21.89 0 0 0 21.865 21.865h28.59a12.415 12.415 0 0 0 12.299-11.09 50.932 50.932 0 0 1 101.207.01 12.423 12.423 0 0 0 12.274 11.093l123.675.31h.03a12.377 12.377 0 0 0 12.285-11.135 50.932 50.932 0 0 1 101.291.214 12.405 12.405 0 0 0 12.292 11.21l46.831.074h.113a21.85 21.85 0 0 0 21.848-21.854v-65.43a29.99 29.99 0 0 0-29.404-29.721Zm-166.684 76.009v28.63l-122.248-.307c-.216 0-.353-.219-.378-.434a62.932 62.932 0 0 0-125.056-.01c-.024.214-.16.43-.374.43h-28.59a9.876 9.876 0 0 1-9.866-9.864V125.69a17.398 17.398 0 0 1 17.378-17.378h251.754a17.398 17.398 0 0 1 17.378 17.378v66.002l.003.048Zm42.455-156.384a16.521 16.521 0 0 1 32.965 0Zm52.51 80.358a10.628 10.628 0 0 1-10.615-10.616V197.69h.313a28.772 28.772 0 0 1 27.084 19.175l10.093 28.656a47.034 47.034 0 0 0 13.11 19.527Zm89.123 53.166h-14.268a6.497 6.497 0 0 1-6.49-6.49v-34.676h2.736a17.977 17.977 0 0 1 18.022 17.737Z" fill="#4fa9d6" class="fill-000000"></path></svg>