<svg viewBox="0 0 100 100" xml:space="preserve" xmlns="http://www.w3.org/2000/svg"><g fill="#e0456c" className="fill-231f20"><path d="M13.087 43.361a2 2 0 0 0 1.947-2.468 21.181 21.181 0 0 1-.59-4.953c0-9.861 7.64-17.885 17.03-17.885 9.718 0 16.839 6.77 16.934 16.098a2 2 0 0 0 4 0c.096-9.327 7.218-16.098 16.935-16.098 9.391 0 17.031 8.023 17.031 17.885 0 1.635-.191 3.273-.57 4.87a2 2 0 0 0 3.892.922c.449-1.898.678-3.847.678-5.792 0-12.067-9.435-21.885-21.031-21.885-8.667 0-15.665 4.393-18.935 11.205-3.269-6.812-10.266-11.205-18.934-11.205-11.596 0-21.03 9.817-21.03 21.885 0 1.974.236 3.955.701 5.889a1.999 1.999 0 0 0 1.942 1.532zM76.312 54.342 50.407 80.123l-25.73-25.61a2.003 2.003 0 0 0-2.829.007 2.003 2.003 0 0 0 .007 2.829l27.142 27.014c.391.388.9.582 1.411.582s1.021-.194 1.411-.582l27.315-27.185a2 2 0 1 0-2.822-2.836z"></path><path d="M95.5 46.507V46.5h-.002a2.69 2.69 0 0 0-1.703-.615c-.647 0-1.233.236-1.699.615h-29.14a2.684 2.684 0 0 0-1.7-.615 2.71 2.71 0 0 0-2.712 2.712c0 .055.013.105.016.159L50.749 59.13 38.556 34.826c.059-.223.101-.452.101-.693a2.712 2.712 0 0 0-5.423 0c0 .069.016.134.021.202L24.102 46.5H6.913a2.686 2.686 0 0 0-1.7-.615A2.71 2.71 0 0 0 2.5 48.597 2.71 2.71 0 0 0 7.142 50.5H25.1a2 2 0 0 0 1.599-.798l8.906-11.838 12.229 24.377c-.082.26-.139.531-.139.818a2.713 2.713 0 0 0 5.426 0c0-.13-.021-.254-.038-.379l8.594-11.415a2.696 2.696 0 0 0 1.508-.766h28.683a2.708 2.708 0 0 0 4.638-1.903c-.001-.846-.006-1.592-1.006-2.089z"></path></g></svg>