<?xml version="1.0" ?><svg id="Filled" viewBox="0 0 64 64" xmlns="http://www.w3.org/2000/svg"><title/><path d="M10,60H54V46.685a6,6,0,0,0-4.545-5.821L38,38H26L14.545,40.864A6,6,0,0,0,10,46.685Z" style="fill:#2a8fe7;stroke:#000;stroke-linecap:round;stroke-linejoin:round;stroke-width:2px"/><path d="M38,32.008V40a6,6,0,0,1-6,6h0a6,6,0,0,1-6-6V32Z" style="fill:#fabea3;stroke:#000;stroke-linecap:round;stroke-linejoin:round;stroke-width:2px"/><path d="M21,14V25A11,11,0,0,0,32,36h0A11,11,0,0,0,43,25V14a8,8,0,0,0-8-8H29A8,8,0,0,0,21,14Z" style="fill:#ffc8b3;stroke:#000;stroke-linecap:round;stroke-linejoin:round;stroke-width:2px"/><path d="M43,18h1a3,3,0,0,1,3,3v0a3,3,0,0,1-3,3H43a0,0,0,0,1,0,0V18A0,0,0,0,1,43,18Z" style="fill:#fabea3;stroke:#000;stroke-linecap:round;stroke-linejoin:round;stroke-width:2px"/><path d="M17,18h1a3,3,0,0,1,3,3v0a3,3,0,0,1-3,3H17a0,0,0,0,1,0,0V18A0,0,0,0,1,17,18Z" style="fill:#fabea3;stroke:#000;stroke-linecap:round;stroke-linejoin:round;stroke-width:2px" transform="translate(38 42) rotate(180)"/><path d="M43,16h0a12.812,12.812,0,0,1-9.841-4.609L32,10l1.561,4.684A1,1,0,0,1,32.613,16h0a6.4,6.4,0,0,1-6.072-4.376L26,10v1a5,5,0,0,1-5,5h0V10a6,6,0,0,1,6-6H37a6,6,0,0,1,6,6Z" style="fill:#574943;stroke:#000;stroke-linecap:round;stroke-linejoin:round;stroke-width:2px"/><circle cx="38" cy="20" r="1"/><circle cx="26" cy="20" r="1"/><path d="M38,30a10,10,0,0,1-12,0V25a10,10,0,0,1,12,0Z" style="fill:#a4ede6;stroke:#000;stroke-linecap:round;stroke-linejoin:round;stroke-width:2px"/><line style="fill:none;stroke:#000;stroke-linecap:round;stroke-linejoin:round;stroke-width:2px" x1="38" x2="43" y1="25" y2="18"/><line style="fill:none;stroke:#000;stroke-linecap:round;stroke-linejoin:round;stroke-width:2px" x1="26" x2="21" y1="25" y2="18"/><line style="fill:none;stroke:#000;stroke-linecap:round;stroke-linejoin:round;stroke-width:2px" x1="26" x2="21" y1="30" y2="26"/><line style="fill:none;stroke:#000;stroke-linecap:round;stroke-linejoin:round;stroke-width:2px" x1="38" x2="43" y1="30" y2="26"/><line style="fill:none;stroke:#000;stroke-linecap:round;stroke-linejoin:round;stroke-width:2px" x1="46" x2="46" y1="60" y2="54"/><line style="fill:none;stroke:#000;stroke-linecap:round;stroke-linejoin:round;stroke-width:2px" x1="18" x2="18" y1="60" y2="54"/></svg>